<svg version="1.1" id="Layer_1" xmlns="http://www.w3.org/2000/svg" xmlns:xlink="http://www.w3.org/1999/xlink" x="0px" y="0px"
	 width="100%" viewBox="0 0 512 512" enable-background="new 0 0 512 512" xml:space="preserve">
<path fill="#000000" opacity="1.000000" stroke="none" 
	d="
M284.000000,513.000000 
	C189.356308,513.000000 95.212616,513.000000 1.034460,513.000000 
	C1.034460,342.397949 1.034460,171.795883 1.034460,1.096914 
	C171.560379,1.096914 342.120819,1.096914 512.840637,1.096914 
	C512.840637,171.666550 512.840637,342.333252 512.840637,513.000000 
	C436.795868,513.000000 360.647919,513.000000 284.000000,513.000000 
M138.654785,298.636322 
	C138.654785,298.636322 138.644684,298.694519 138.051743,298.615631 
	C137.933151,298.954132 137.814560,299.292664 137.763458,299.687256 
	C137.763458,299.687256 137.676407,299.676025 137.063431,299.570068 
	C136.672562,300.021545 136.281693,300.473053 135.954941,300.938446 
	C135.954941,300.938446 135.947327,300.873260 135.169327,300.902832 
	C133.428802,301.335785 131.688278,301.768738 129.019333,302.131714 
	C116.896675,302.132721 104.774025,302.132812 92.651367,302.135132 
	C85.344574,302.136566 78.035355,302.047455 70.733368,302.236572 
	C69.501297,302.268524 68.300484,303.507385 67.036362,305.027863 
	C67.063431,307.266632 67.090500,309.505371 66.462006,312.174194 
	C67.128304,312.434418 67.793976,312.920197 68.461006,312.922089 
	C89.843239,312.981903 111.225624,313.005890 132.607895,312.973633 
	C133.430420,312.972412 134.252029,312.362152 134.992172,311.984131 
	C134.992172,311.984131 134.940491,312.065948 135.453033,311.966400 
	C135.616348,311.906281 135.779678,311.846161 136.675461,311.912201 
	C137.268875,311.663727 137.862152,311.414917 138.455719,311.166809 
	C146.824936,307.668457 152.431519,301.673828 152.871643,292.453278 
	C153.346115,282.513458 148.328598,275.491486 139.402176,270.989685 
	C137.522278,270.041626 135.884659,267.765167 135.058121,265.726654 
	C131.868698,257.860596 124.454117,252.929047 115.381508,252.602936 
	C111.473061,252.462463 107.964401,251.539902 105.121391,247.802292 
	C100.047035,241.131195 92.481529,238.085251 84.368599,236.781540 
	C81.677155,236.349045 78.813271,236.989655 75.272377,237.079117 
	C71.821365,238.696762 68.370354,240.314392 64.976479,241.962128 
	C64.976479,241.962128 64.970688,241.897812 64.338776,242.132050 
	C62.864086,243.411102 61.389400,244.690155 59.978584,245.978119 
	C59.978584,245.978119 59.970837,245.914093 59.352634,246.151199 
	C59.118538,246.700165 58.884438,247.249130 58.752106,247.780899 
	C58.752106,247.780899 58.733162,247.679459 58.090469,247.598312 
	C57.964512,247.969711 57.838554,248.341125 57.709885,248.744812 
	C57.709885,248.744812 57.686275,248.767014 57.020306,248.827469 
	C56.826935,249.223907 56.633564,249.620346 56.099598,250.443695 
	C55.572113,251.918015 55.044624,253.392334 54.527779,254.870148 
	C60.097450,257.198730 64.833199,256.275055 68.876030,252.676422 
	C74.300316,247.848068 80.356438,245.973740 87.831871,248.015869 
	C95.169228,250.020279 98.757767,254.896317 101.025780,261.482971 
	C102.730568,266.433960 105.257484,267.274170 109.956520,264.548035 
	C110.662254,264.138611 111.363136,263.583710 112.130730,263.439728 
	C118.301613,262.282104 123.759468,262.700287 123.764229,268.732391 
	C123.770546,276.740967 123.918365,276.740845 131.655930,279.007324 
	C139.768539,281.383636 143.409195,287.908966 140.390076,296.094147 
	C140.144592,296.668945 139.899124,297.243774 139.769974,297.792725 
	C139.769974,297.792725 139.742493,297.676788 139.120346,297.572845 
	C138.984695,297.929749 138.849045,298.286652 138.654785,298.636322 
M354.037445,308.969879 
	C354.037445,308.969879 354.134369,308.969788 353.722534,308.218140 
	C353.585907,300.803558 353.449280,293.388977 353.872314,286.443787 
	C356.893494,294.027435 359.870728,301.629211 362.977509,309.177643 
	C363.520172,310.496185 364.607971,311.590393 365.444031,312.788208 
	C366.524017,311.747467 368.091431,310.903748 368.604706,309.633942 
	C371.880554,301.529938 374.924316,293.332123 378.553497,285.080200 
	C378.725494,285.085083 378.897461,285.089966 379.122986,286.018188 
	C379.159760,292.258789 379.196564,298.499359 379.007263,305.525085 
	C378.043945,307.040802 377.080658,308.556519 376.074646,310.864349 
	C380.337860,314.136261 391.389191,313.963318 393.719391,310.737000 
	C392.423584,309.869934 391.123962,309.000305 390.016266,307.191101 
	C389.998657,295.848572 389.981049,284.506073 390.750183,272.976562 
	C391.873688,272.350128 392.997192,271.723663 394.120728,271.097229 
	C388.820984,270.296051 383.801758,269.429688 379.393890,270.694336 
	C377.451263,271.251648 376.737030,276.132935 375.497925,279.065002 
	C375.246399,279.660126 375.207916,280.344727 374.960083,280.941956 
	C372.804199,286.137024 370.622986,291.321625 368.030457,297.508942 
	C365.408295,290.197021 363.208466,283.947510 360.919434,277.730835 
	C359.854675,274.839111 359.194214,270.109802 357.338226,269.545990 
	C353.343750,268.332672 348.688477,269.181335 344.315765,269.414001 
	C343.338348,269.466003 343.467468,270.885773 344.975464,272.556000 
	C345.652283,272.734406 346.329132,272.912811 346.998535,272.999603 
	C346.998535,272.999603 346.906952,273.007202 347.013855,273.941254 
	C347.060120,285.014954 347.106384,296.088654 347.024170,307.397430 
	C347.024170,307.397430 347.123749,307.646118 346.585632,308.102570 
	C346.262543,308.443665 345.939453,308.784760 345.023499,309.002197 
	C344.236420,309.634094 343.449310,310.265991 342.302948,311.186340 
	C346.798065,313.640533 350.820312,313.772583 354.838837,311.930237 
	C355.320557,311.709381 355.175598,310.121643 354.686920,308.987305 
	C354.470490,308.949158 354.254059,308.911041 354.037445,308.969879 
M298.519470,283.124878 
	C298.261658,283.381927 298.003845,283.638947 297.017731,283.839508 
	C292.383270,282.871124 288.869019,283.943451 287.488220,286.742584 
	C288.716064,287.503265 289.943909,288.263947 291.061615,289.952576 
	C291.049286,294.542816 291.255524,299.150421 290.892517,303.712769 
	C290.782349,305.097504 289.099670,306.357117 287.516357,307.954346 
	C283.677338,307.402283 282.745667,305.081024 282.919495,301.438049 
	C283.202087,295.515900 282.995697,289.570404 282.995697,282.728760 
	C277.885559,283.342346 273.430969,283.877228 268.976379,284.412109 
	C268.761047,284.784515 268.545715,285.156952 268.330353,285.529358 
	C274.797272,288.542297 272.736267,294.013458 272.969543,298.818054 
	C273.017792,299.811432 273.136749,300.840057 272.951721,301.800110 
	C271.123047,311.288422 281.304108,315.140564 288.588409,312.165466 
	C289.861267,311.645599 291.338104,311.397125 292.717255,311.409515 
	C296.436310,311.442841 300.153534,311.684631 304.642090,311.808533 
	C303.611420,310.186554 302.580750,308.564575 300.990417,306.061920 
	C300.990417,300.340088 301.076447,293.443573 300.904999,286.553467 
	C300.876709,285.415771 299.720642,284.306152 298.519470,283.124878 
M262.196503,285.693970 
	C262.196503,285.693970 262.197327,285.753601 261.998474,285.062317 
	C254.921646,280.542114 247.196243,280.917999 241.105713,286.482819 
	C240.454147,287.417694 239.967300,288.548279 239.125305,289.256927 
	C231.407791,295.752106 238.219971,311.764618 247.603333,312.955139 
	C254.718399,313.857880 262.282196,311.489014 265.492523,305.870178 
	C268.200928,301.129822 269.120819,293.526337 264.244781,287.840942 
	C263.581635,287.128418 262.918518,286.415863 262.196503,285.693970 
M400.360474,287.158295 
	C399.285248,289.345734 398.210052,291.533173 397.019592,294.553864 
	C393.537231,304.523102 400.575531,313.022308 412.292542,312.996979 
	C419.346863,312.981750 424.825043,309.692841 426.844391,304.260498 
	C429.585754,296.886047 428.022644,290.955109 421.946014,285.129150 
	C415.921753,280.262421 406.741638,281.066345 400.978760,286.977570 
	C400.978760,286.977570 400.971985,286.912476 400.360474,287.158295 
M230.109695,308.889404 
	C230.109695,308.889404 230.256653,308.930603 230.201508,307.997864 
	C230.132446,296.721375 230.108688,285.444244 229.957626,274.168854 
	C229.925888,271.799072 229.426376,269.435577 228.852036,266.524536 
	C224.664459,267.224609 220.476883,267.924713 215.799500,268.706665 
	C217.667648,270.984802 218.908310,272.497742 219.898499,274.918182 
	C219.878601,284.463959 219.924149,294.010681 219.782623,303.554657 
	C219.754898,305.424500 219.002823,307.283630 217.903748,309.066284 
	C217.260773,309.668854 216.617783,310.271423 215.974792,310.873993 
	C216.037613,311.388275 216.100418,311.902527 216.163239,312.416779 
	C221.235641,312.580627 226.307907,312.815491 231.380676,312.826538 
	C232.087006,312.828064 232.795746,311.727203 233.503357,311.136627 
	C232.818466,310.457397 232.133575,309.778168 230.844055,308.761108 
	C230.613281,308.754974 230.382492,308.748810 230.109695,308.889404 
M470.748932,311.486603 
	C470.666840,310.856323 470.674225,309.703979 470.489532,309.672333 
	C466.162079,308.930634 467.086334,305.618774 466.993317,302.774048 
	C466.789551,296.543823 466.549042,290.314758 465.868500,283.486694 
	C461.648376,284.407745 456.375061,281.238525 453.022064,286.537170 
	C458.718109,289.860077 458.695953,306.714996 452.778107,311.116089 
	C458.736115,313.691254 464.333893,313.996338 470.748932,311.486603 
M336.984039,303.135529 
	C336.951019,294.305511 336.917999,285.475494 336.965454,275.797089 
	C336.965454,272.741760 336.965454,269.686401 336.965454,266.293976 
	C333.607666,266.988007 331.239441,267.520477 328.853760,267.957733 
	C326.769501,268.339752 324.665588,268.614624 322.570343,268.936859 
	C327.524597,272.227875 327.785187,273.100403 326.406830,282.726654 
	C325.847595,282.816284 325.225433,282.994568 324.600616,283.004395 
	C314.977478,283.156097 307.338745,287.333191 307.275360,299.733429 
	C307.225189,309.547363 315.049469,315.647552 324.325867,312.325836 
	C325.965790,311.738525 328.086609,312.284882 329.946594,312.565002 
	C333.767822,313.140411 337.573944,313.942291 339.933807,311.365204 
	C338.677246,308.440704 337.739227,306.257507 336.984039,303.135529 
M46.928741,301.992737 
	C43.135834,300.706909 39.028465,299.969452 35.619179,298.014618 
	C29.574383,294.548462 28.601618,281.282043 33.863625,276.434845 
	C39.093758,271.616974 44.669125,269.320221 51.683483,269.931000 
	C59.855076,270.642548 62.975777,268.555939 64.433723,262.254181 
	C65.100876,259.370514 64.187447,258.182159 61.376579,258.042480 
	C51.462364,257.549927 41.902161,258.582703 32.868637,263.273865 
	C25.705446,266.993744 21.194218,273.091614 19.188524,280.270355 
	C15.688248,292.798492 24.199097,307.449829 36.852715,310.844269 
	C43.416653,312.605133 50.514610,312.606232 57.392818,312.901367 
	C64.653122,313.212891 65.762062,311.149841 62.883072,303.091248 
	C57.830090,302.794312 52.777107,302.497375 46.928741,301.992737 
M82.449280,189.945679 
	C93.158188,190.355591 102.726883,193.574829 110.427246,201.351334 
	C112.868973,203.817200 115.382294,203.702530 117.931122,201.614471 
	C120.769592,199.289124 120.006126,197.073761 118.184341,194.295502 
	C113.683350,187.431305 106.077019,185.064789 99.361847,182.548889 
	C89.015099,178.672394 77.831032,178.293015 66.991417,182.044266 
	C59.341278,184.691711 52.047359,187.998215 46.397408,194.076935 
	C42.854778,197.888412 43.707512,201.784744 48.752491,202.569824 
	C50.900314,202.904053 53.768970,201.224380 55.725605,199.706528 
	C63.367279,193.778488 71.649063,189.835236 82.449280,189.945679 
M183.873138,277.336334 
	C182.823990,279.359131 182.016403,281.559692 180.682114,283.372650 
	C175.984070,289.755981 179.197464,302.125488 185.449783,308.225891 
	C192.032684,314.648865 205.557144,314.101105 210.978455,310.875793 
	C212.199738,310.149231 212.690231,308.194244 213.517120,306.804718 
	C213.093994,306.525879 212.670853,306.247040 212.247726,305.968170 
	C211.520859,306.271484 210.819809,306.687347 210.063171,306.860748 
	C202.287918,308.642578 194.728394,306.622375 192.330933,301.633057 
	C188.355850,293.360626 188.846817,285.004395 193.475494,277.140778 
	C195.717499,273.331909 199.869080,271.966827 203.858337,273.230499 
	C205.594086,273.780334 206.539581,276.987732 207.715378,279.061066 
	C208.176407,279.874023 208.285400,280.886566 208.554718,281.808197 
	C209.091904,281.986053 209.629089,282.163910 210.166275,282.341766 
	C211.070526,279.998230 212.327011,277.717834 212.762268,275.290222 
	C213.082855,273.502075 212.412567,271.502472 211.981552,269.643982 
	C211.902084,269.301331 210.869171,269.131439 210.253372,268.968719 
	C199.988144,266.256470 191.401077,269.293182 183.873138,277.336334 
M82.577637,195.330338 
	C81.115326,195.546707 79.649117,195.739761 78.191338,195.983292 
	C69.015045,197.516129 60.602837,200.385040 55.258774,209.152832 
	C57.473675,211.169708 59.607964,213.113190 61.886520,215.188049 
	C63.921818,213.721069 65.799911,212.644501 67.344131,211.208801 
	C76.412041,202.778214 90.618904,205.079269 98.441360,212.114746 
	C101.373726,214.752090 103.776535,215.664200 106.368774,212.832840 
	C108.905968,210.061615 108.072388,207.293854 105.333878,204.608612 
	C99.161125,198.555832 91.498337,196.529892 82.577637,195.330338 
M431.812012,287.425232 
	C435.320587,288.538025 433.925415,291.448151 433.885986,293.647461 
	C433.818420,297.415344 432.524689,301.344543 433.268341,304.886292 
	C433.874146,307.771484 436.147339,311.322388 438.672577,312.567627 
	C443.281128,314.840210 449.296631,312.522949 451.710693,308.318024 
	C449.621857,308.212372 447.774933,308.472687 446.208313,307.927521 
	C444.960602,307.493286 443.196411,306.122009 443.140686,305.087158 
	C442.839081,299.482971 442.997650,293.854004 442.997650,288.570831 
	C446.091339,287.957397 448.583527,287.463257 451.075714,286.969086 
	C451.052185,286.282745 451.028656,285.596405 451.005157,284.910065 
	C448.457733,284.433990 445.910339,283.957886 442.908356,283.396820 
	C442.908356,281.050934 442.908356,278.654846 442.908356,276.281982 
	C437.869202,276.234894 438.009369,276.325928 435.702820,279.877014 
	C434.789673,281.282837 433.258911,282.532288 431.726074,283.235657 
	C429.178101,284.404938 430.116058,285.558167 431.812012,287.425232 
M484.565765,286.127899 
	C484.606018,285.429382 484.646271,284.730835 484.686554,284.032318 
	C479.850464,284.032318 475.014374,284.032318 470.347351,284.032318 
	C472.290833,287.172791 474.159332,289.513824 475.295441,292.168304 
	C477.710938,297.811859 479.581146,303.690491 482.044678,309.310638 
	C482.712860,310.834991 485.061554,312.997559 486.003967,312.719055 
	C487.596466,312.248352 489.162964,310.272125 489.900116,308.565918 
	C493.431244,300.392548 496.680237,292.097260 499.903870,284.154846 
	C498.046875,284.154846 494.969971,284.154846 493.012787,284.154846 
	C491.797302,289.374176 490.691895,294.120880 489.586487,298.867584 
	C488.973785,298.936493 488.361084,299.005371 487.748383,299.074280 
	C486.533051,294.983673 485.317688,290.893066 484.565765,286.127899 
M79.234734,209.434433 
	C76.460297,210.600601 73.604698,211.608093 70.932869,212.974854 
	C67.889816,214.531494 64.992439,216.501266 66.861305,220.650467 
	C68.539993,224.377426 72.221649,225.280060 76.032600,222.478531 
	C80.839325,218.944977 84.906845,219.389709 89.502213,222.941696 
	C90.791237,223.938004 94.112679,223.677002 95.576607,222.660355 
	C96.851562,221.774994 97.826668,218.472992 97.143585,217.198807 
	C96.000443,215.066422 93.684113,213.070358 91.404373,212.152725 
	C87.776451,210.692444 83.772858,210.165451 79.234734,209.434433 
M84.309319,222.284012 
	C82.550339,222.539871 80.612244,222.409592 79.067024,223.126297 
	C74.954269,225.033905 73.611824,229.144409 76.451965,231.725189 
	C78.159981,233.277222 81.175041,234.648071 83.216270,234.226990 
	C85.309731,233.795105 88.228424,231.210815 88.417397,229.330521 
	C88.630966,227.205582 86.207161,224.815567 84.309319,222.284012 
M457.901855,270.656647 
	C455.997650,273.641571 456.685516,276.532043 459.725250,277.558990 
	C461.568329,278.181610 464.144440,276.634430 466.391266,276.062042 
	C465.750366,273.719849 465.621857,270.970154 464.232483,269.223206 
	C463.622162,268.455841 460.442993,269.731506 457.901855,270.656647 
z"/>
<path fill="#0690CC" opacity="1.000000" stroke="none" 
	d="
M67.117569,311.744141 
	C67.090500,309.505371 67.063431,307.266632 67.516479,304.526947 
	C88.644249,303.966797 109.291916,303.907593 130.304581,303.843048 
	C132.428833,302.849579 134.188080,301.861420 135.947327,300.873260 
	C135.947327,300.873260 135.954941,300.938446 136.257294,300.992340 
	C136.931900,300.589508 137.304153,300.132751 137.676407,299.676025 
	C137.676407,299.676025 137.763458,299.687256 138.030197,299.704224 
	C138.412857,299.378937 138.528778,299.036743 138.644684,298.694519 
	C138.644684,298.694519 138.654785,298.636322 138.985718,298.679688 
	C139.458588,298.374329 139.600540,298.025543 139.742493,297.676788 
	C139.742493,297.676788 139.769974,297.792725 140.027481,297.695435 
	C140.532166,296.999695 140.779327,296.401245 141.026505,295.802826 
	C143.409195,287.908966 139.768539,281.383636 131.655930,279.007324 
	C123.918365,276.740845 123.770546,276.740967 123.764229,268.732391 
	C123.759468,262.700287 118.301613,262.282104 112.130730,263.439728 
	C111.363136,263.583710 110.662254,264.138611 109.956520,264.548035 
	C105.257484,267.274170 102.730568,266.433960 101.025780,261.482971 
	C98.757767,254.896317 95.169228,250.020279 87.831871,248.015869 
	C80.356438,245.973740 74.300316,247.848068 68.876030,252.676422 
	C64.833199,256.275055 60.097450,257.198730 54.522457,254.868393 
	C55.044624,253.392334 55.572113,251.918015 56.619370,250.161743 
	C57.321518,249.508881 57.503895,249.137939 57.686272,248.767014 
	C57.686275,248.767014 57.709885,248.744812 58.010098,248.731598 
	C58.451263,248.372070 58.592213,248.025772 58.733162,247.679459 
	C58.733162,247.679459 58.752106,247.780899 59.017960,247.700058 
	C59.512817,247.050842 59.741829,246.482468 59.970840,245.914093 
	C59.970837,245.914093 59.978584,245.978119 60.301460,246.015564 
	C62.073120,244.667953 63.521904,243.282883 64.970688,241.897812 
	C64.970688,241.897812 64.976479,241.962128 65.307861,242.115448 
	C69.102234,240.559036 72.565224,238.849335 76.028221,237.139633 
	C78.813271,236.989655 81.677155,236.349045 84.368599,236.781540 
	C92.481529,238.085251 100.047035,241.131195 105.121391,247.802292 
	C107.964401,251.539902 111.473061,252.462463 115.381508,252.602936 
	C124.454117,252.929047 131.868698,257.860596 135.058121,265.726654 
	C135.884659,267.765167 137.522278,270.041626 139.402176,270.989685 
	C148.328598,275.491486 153.346115,282.513458 152.871643,292.453278 
	C152.431519,301.673828 146.824936,307.668457 138.455719,311.166809 
	C137.862152,311.414917 137.268875,311.663727 136.178131,311.868713 
	C135.414963,311.835693 135.168198,311.915924 134.940491,312.065948 
	C134.940491,312.065948 134.992172,311.984131 134.565598,311.928406 
	C111.798538,311.829865 89.458054,311.786987 67.117569,311.744141 
z"/>
<path fill="#092A73" opacity="1.000000" stroke="none" 
	d="
M62.896458,303.934021 
	C65.762062,311.149841 64.653122,313.212891 57.392818,312.901367 
	C50.514610,312.606232 43.416653,312.605133 36.852715,310.844269 
	C24.199097,307.449829 15.688248,292.798492 19.188524,280.270355 
	C21.194218,273.091614 25.705446,266.993744 32.868637,263.273865 
	C41.902161,258.582703 51.462364,257.549927 61.376579,258.042480 
	C64.187447,258.182159 65.100876,259.370514 64.433723,262.254181 
	C62.975777,268.555939 59.855076,270.642548 51.683483,269.931000 
	C44.669125,269.320221 39.093758,271.616974 33.863625,276.434845 
	C28.601618,281.282043 29.574383,294.548462 35.619179,298.014618 
	C39.028465,299.969452 43.135834,300.706909 47.471901,302.486816 
	C52.975529,303.298584 57.935993,303.616302 62.896458,303.934021 
z"/>
<path fill="#0B91CC" opacity="1.000000" stroke="none" 
	d="
M344.591522,271.942444 
	C343.467468,270.885773 343.338348,269.466003 344.315765,269.414001 
	C348.688477,269.181335 353.343750,268.332672 357.338226,269.545990 
	C359.194214,270.109802 359.854675,274.839111 360.919434,277.730835 
	C363.208466,283.947510 365.408295,290.197021 368.030457,297.508942 
	C370.622986,291.321625 372.804199,286.137024 374.960083,280.941956 
	C375.207916,280.344727 375.246399,279.660126 375.497925,279.065002 
	C376.737030,276.132935 377.451263,271.251648 379.393890,270.694336 
	C383.801758,269.429688 388.820984,270.296051 394.120728,271.097229 
	C392.997192,271.723663 391.873688,272.350128 390.152893,273.033356 
	C389.555603,273.090149 389.144562,273.037903 388.937012,273.393799 
	C388.483856,281.766174 388.108459,289.781769 388.054108,297.799561 
	C388.031128,301.188141 388.683990,304.581268 389.226929,308.019043 
	C389.424164,308.065765 389.824341,308.130707 389.824341,308.130707 
	C391.123962,309.000305 392.423584,309.869934 393.719391,310.737000 
	C391.389191,313.963318 380.337860,314.136261 376.486145,310.479797 
	C380.687317,310.280548 381.155762,307.972748 380.773346,304.526215 
	C380.818604,295.980865 380.818604,287.901581 380.818604,279.822327 
	C380.435181,279.797394 380.051758,279.772430 379.668335,279.747498 
	C379.459351,280.474976 379.250397,281.202454 378.856659,282.223694 
	C378.462738,283.400024 378.253571,284.282623 378.044434,285.165192 
	C374.924316,293.332123 371.880554,301.529938 368.604706,309.633942 
	C368.091431,310.903748 366.524017,311.747467 365.444031,312.788208 
	C364.607971,311.590393 363.520172,310.496185 362.977509,309.177643 
	C359.870728,301.629211 356.893494,294.027435 353.579620,285.894104 
	C353.357544,284.511200 353.428162,283.677979 353.584076,281.838348 
	C352.630737,283.073944 352.130737,283.420013 352.128021,283.769928 
	C352.068298,291.538208 352.014404,299.307770 352.138855,307.074158 
	C352.149170,307.716522 353.439026,308.338409 354.134369,308.969788 
	C354.134369,308.969788 354.037445,308.969879 353.978333,309.197144 
	C354.386505,309.338745 354.853790,309.253113 355.321106,309.167480 
	C355.175598,310.121643 355.320557,311.709381 354.838837,311.930237 
	C350.820312,313.772583 346.798065,313.640533 342.302948,311.186340 
	C343.449310,310.265991 344.236420,309.634094 345.547577,309.194977 
	C346.422363,308.807220 346.773071,308.226685 347.123779,307.646118 
	C347.123749,307.646118 347.024170,307.397430 347.418976,307.063110 
	C348.138763,306.168884 348.742065,305.611511 348.747223,305.048706 
	C348.835297,295.407684 348.910034,285.765228 348.792877,276.125488 
	C348.780182,275.078583 347.564606,274.046265 346.906952,273.007202 
	C346.906952,273.007202 346.998535,272.999603 346.838043,272.724976 
	C345.982208,272.281006 345.286865,272.111725 344.591522,271.942444 
z"/>
<path fill="#092A73" opacity="1.000000" stroke="none" 
	d="
M81.986786,189.945496 
	C71.649063,189.835236 63.367279,193.778488 55.725605,199.706528 
	C53.768970,201.224380 50.900314,202.904053 48.752491,202.569824 
	C43.707512,201.784744 42.854778,197.888412 46.397408,194.076935 
	C52.047359,187.998215 59.341278,184.691711 66.991417,182.044266 
	C77.831032,178.293015 89.015099,178.672394 99.361847,182.548889 
	C106.077019,185.064789 113.683350,187.431305 118.184341,194.295502 
	C120.006126,197.073761 120.769592,199.289124 117.931122,201.614471 
	C115.382294,203.702530 112.868973,203.817200 110.427246,201.351334 
	C102.726883,193.574829 93.158188,190.355591 81.986786,189.945496 
z"/>
<path fill="#0B91CC" opacity="1.000000" stroke="none" 
	d="
M336.801178,304.074310 
	C337.739227,306.257507 338.677246,308.440704 339.933807,311.365204 
	C337.573944,313.942291 333.767822,313.140411 329.946594,312.565002 
	C328.086609,312.284882 325.965790,311.738525 324.325867,312.325836 
	C315.049469,315.647552 307.225189,309.547363 307.275360,299.733429 
	C307.338745,287.333191 314.977478,283.156097 324.600616,283.004395 
	C325.225433,282.994568 325.847595,282.816284 326.406830,282.726654 
	C327.785187,273.100403 327.524597,272.227875 322.570343,268.936859 
	C324.665588,268.614624 326.769501,268.339752 328.853760,267.957733 
	C331.239441,267.520477 333.607666,266.988007 336.965454,266.293976 
	C336.965454,269.686401 336.965454,272.741760 336.687927,276.605103 
	C336.540649,286.300171 336.670898,295.187256 336.801178,304.074310 
M318.355743,291.135834 
	C317.951782,292.365021 317.442230,293.570526 317.160919,294.827148 
	C315.297852,303.148834 319.132324,308.371826 326.751953,307.652588 
	C326.751953,300.944275 326.751953,294.216309 326.751953,287.302460 
	C323.266357,286.657990 320.431122,286.954926 318.355743,291.135834 
z"/>
<path fill="#0B91CC" opacity="1.000000" stroke="none" 
	d="
M183.975983,276.986786 
	C191.401077,269.293182 199.988144,266.256470 210.253372,268.968719 
	C210.869171,269.131439 211.902084,269.301331 211.981552,269.643982 
	C212.412567,271.502472 213.082855,273.502075 212.762268,275.290222 
	C212.327011,277.717834 211.070526,279.998230 210.166275,282.341766 
	C209.629089,282.163910 209.091904,281.986053 208.554718,281.808197 
	C208.285400,280.886566 208.176407,279.874023 207.715378,279.061066 
	C206.539581,276.987732 205.594086,273.780334 203.858337,273.230499 
	C199.869080,271.966827 195.717499,273.331909 193.475494,277.140778 
	C188.846817,285.004395 188.355850,293.360626 192.330933,301.633057 
	C194.728394,306.622375 202.287918,308.642578 210.063171,306.860748 
	C210.819809,306.687347 211.520859,306.271484 212.247726,305.968170 
	C212.670853,306.247040 213.093994,306.525879 213.517120,306.804718 
	C212.690231,308.194244 212.199738,310.149231 210.978455,310.875793 
	C205.557144,314.101105 192.032684,314.648865 185.449783,308.225891 
	C179.197464,302.125488 175.984070,289.755981 180.682114,283.372650 
	C182.016403,281.559692 182.823990,279.359131 183.975983,276.986786 
z"/>
<path fill="#0B91CC" opacity="1.000000" stroke="none" 
	d="
M303.871460,311.843719 
	C300.153534,311.684631 296.436310,311.442841 292.717255,311.409515 
	C291.338104,311.397125 289.861267,311.645599 288.588409,312.165466 
	C281.304108,315.140564 271.123047,311.288422 272.951721,301.800110 
	C273.136749,300.840057 273.017792,299.811432 272.969543,298.818054 
	C272.736267,294.013458 274.797272,288.542297 268.330353,285.529358 
	C268.545715,285.156952 268.761047,284.784515 268.976379,284.412109 
	C273.430969,283.877228 277.885559,283.342346 282.995697,282.728760 
	C282.995697,289.570404 283.202087,295.515900 282.919495,301.438049 
	C282.745667,305.081024 283.677338,307.402283 288.115082,307.912201 
	C289.954468,307.352875 292.283600,306.804626 292.269867,306.323242 
	C292.105164,300.551300 291.593079,294.789246 291.171753,289.024628 
	C289.943909,288.263947 288.716064,287.503265 287.486450,286.745483 
	C288.869019,283.943451 292.383270,282.871124 297.739014,283.867218 
	C298.698212,283.883362 298.936188,283.871765 299.166351,283.911041 
	C299.158539,283.961884 299.143066,283.861023 299.111572,284.339294 
	C299.050873,290.553925 298.870026,296.295471 299.065948,302.024170 
	C299.145996,304.364899 300.041748,306.677704 300.860077,309.108887 
	C302.059631,310.090942 302.965546,310.967346 303.871460,311.843719 
z"/>
<path fill="#092A73" opacity="1.000000" stroke="none" 
	d="
M82.939621,195.487762 
	C91.498337,196.529892 99.161125,198.555832 105.333878,204.608612 
	C108.072388,207.293854 108.905968,210.061615 106.368774,212.832840 
	C103.776535,215.664200 101.373726,214.752090 98.441360,212.114746 
	C90.618904,205.079269 76.412041,202.778214 67.344131,211.208801 
	C65.799911,212.644501 63.921818,213.721069 61.886520,215.188049 
	C59.607964,213.113190 57.473675,211.169708 55.258774,209.152832 
	C60.602837,200.385040 69.015045,197.516129 78.191338,195.983292 
	C79.649117,195.739761 81.115326,195.546707 82.939621,195.487762 
z"/>
<path fill="#0D90CA" opacity="1.000000" stroke="none" 
	d="
M421.995575,285.862213 
	C428.022644,290.955109 429.585754,296.886047 426.844391,304.260498 
	C424.825043,309.692841 419.346863,312.981750 412.292542,312.996979 
	C400.575531,313.022308 393.537231,304.523102 397.293640,293.904907 
	C398.702454,291.141479 399.837219,289.026978 400.971985,286.912476 
	C400.971985,286.912476 400.978760,286.977570 401.326721,286.993835 
	C408.250305,283.122528 415.017883,282.632385 421.995575,285.862213 
M414.951965,287.482117 
	C411.242645,286.016571 408.072937,287.457733 407.732788,290.989868 
	C407.226135,296.251251 407.848846,301.675537 408.549927,306.956268 
	C408.701385,308.096924 411.189178,309.598358 412.671204,309.681702 
	C413.883362,309.749878 416.287018,307.961884 416.294312,306.982849 
	C416.341370,300.674469 415.874603,294.362274 414.951965,287.482117 
z"/>
<path fill="#0B91CC" opacity="1.000000" stroke="none" 
	d="
M263.986816,288.329926 
	C269.120819,293.526337 268.200928,301.129822 265.492523,305.870178 
	C262.282196,311.489014 254.718399,313.857880 247.603333,312.955139 
	C238.219971,311.764618 231.407791,295.752106 239.125305,289.256927 
	C239.967300,288.548279 240.454147,287.417694 241.649048,286.265869 
	C248.816391,282.949036 255.491333,283.299561 262.197327,285.753601 
	C262.197327,285.753601 262.196503,285.693970 262.176239,285.948486 
	C262.766266,286.911957 263.376526,287.620941 263.986816,288.329926 
M257.996826,299.331543 
	C257.024872,295.276123 256.052917,291.220673 254.816696,286.062561 
	C251.887405,287.272888 248.705276,287.564087 247.567703,289.241699 
	C243.483261,295.265198 246.066849,305.695007 253.344833,310.745789 
	C254.966400,307.061829 256.479980,303.623169 257.996826,299.331543 
z"/>
<path fill="#0B91CC" opacity="1.000000" stroke="none" 
	d="
M220.148972,274.010651 
	C218.908310,272.497742 217.667648,270.984802 215.799500,268.706665 
	C220.476883,267.924713 224.664459,267.224609 228.994003,267.261353 
	C229.050827,280.243469 228.920609,292.488892 228.942368,304.734009 
	C228.944855,306.133667 229.797958,307.531769 230.256653,308.930603 
	C230.256653,308.930603 230.109695,308.889404 230.096832,309.105957 
	C230.538879,309.248016 230.993790,309.173492 231.448685,309.098938 
	C232.133575,309.778168 232.818466,310.457397 233.503357,311.136627 
	C232.795746,311.727203 232.087006,312.828064 231.380676,312.826538 
	C226.307907,312.815491 221.235641,312.580627 216.163239,312.416779 
	C216.100418,311.902527 216.037613,311.388275 215.974792,310.873993 
	C216.617783,310.271423 217.260773,309.668854 218.573944,309.280212 
	C219.856812,308.203644 220.965836,306.925995 220.999603,305.620544 
	C221.183777,298.499847 221.205292,291.370361 221.069763,284.247986 
	C221.004730,280.830933 220.470642,277.422821 220.148972,274.010651 
z"/>
<path fill="#0690CC" opacity="1.000000" stroke="none" 
	d="
M431.551788,287.182373 
	C430.116058,285.558167 429.178101,284.404938 431.726074,283.235657 
	C433.258911,282.532288 434.789673,281.282837 435.702820,279.877014 
	C438.009369,276.325928 437.869202,276.234894 442.908356,276.281982 
	C442.908356,278.654846 442.908356,281.050934 442.908356,283.396820 
	C445.910339,283.957886 448.457733,284.433990 451.005157,284.910065 
	C451.028656,285.596405 451.052185,286.282745 451.075714,286.969086 
	C448.583527,287.463257 446.091339,287.957397 442.997650,288.570831 
	C442.997650,293.854004 442.839081,299.482971 443.140686,305.087158 
	C443.196411,306.122009 444.960602,307.493286 446.208313,307.927521 
	C447.774933,308.472687 449.621857,308.212372 451.710693,308.318024 
	C449.296631,312.522949 443.281128,314.840210 438.672577,312.567627 
	C436.147339,311.322388 433.874146,307.771484 433.268341,304.886292 
	C432.524689,301.344543 433.818420,297.415344 433.885986,293.647461 
	C433.925415,291.448151 435.320587,288.538025 431.551788,287.182373 
z"/>
<path fill="#0D90CA" opacity="1.000000" stroke="none" 
	d="
M484.334045,286.465179 
	C485.317688,290.893066 486.533051,294.983673 487.748383,299.074280 
	C488.361084,299.005371 488.973785,298.936493 489.586487,298.867584 
	C490.691895,294.120880 491.797302,289.374176 493.012787,284.154846 
	C494.969971,284.154846 498.046875,284.154846 499.903870,284.154846 
	C496.680237,292.097260 493.431244,300.392548 489.900116,308.565918 
	C489.162964,310.272125 487.596466,312.248352 486.003967,312.719055 
	C485.061554,312.997559 482.712860,310.834991 482.044678,309.310638 
	C479.581146,303.690491 477.710938,297.811859 475.295441,292.168304 
	C474.159332,289.513824 472.290833,287.172791 470.347351,284.032318 
	C475.014374,284.032318 479.850464,284.032318 484.686554,284.032318 
	C484.646271,284.730835 484.606018,285.429382 484.334045,286.465179 
z"/>
<path fill="#092A73" opacity="1.000000" stroke="none" 
	d="
M79.581444,209.339081 
	C83.772858,210.165451 87.776451,210.692444 91.404373,212.152725 
	C93.684113,213.070358 96.000443,215.066422 97.143585,217.198807 
	C97.826668,218.472992 96.851562,221.774994 95.576607,222.660355 
	C94.112679,223.677002 90.791237,223.938004 89.502213,222.941696 
	C84.906845,219.389709 80.839325,218.944977 76.032600,222.478531 
	C72.221649,225.280060 68.539993,224.377426 66.861305,220.650467 
	C64.992439,216.501266 67.889816,214.531494 70.932869,212.974854 
	C73.604698,211.608093 76.460297,210.600601 79.581444,209.339081 
z"/>
<path fill="#0B91CC" opacity="1.000000" stroke="none" 
	d="
M470.084778,311.730469 
	C464.333893,313.996338 458.736115,313.691254 452.778107,311.116089 
	C458.695953,306.714996 458.718109,289.860077 453.022064,286.537170 
	C456.375061,281.238525 461.648376,284.407745 466.055664,284.247986 
	C466.187836,289.981293 466.075531,294.953491 466.095062,299.925232 
	C466.112152,304.280090 464.975525,309.076263 470.084778,311.730469 
z"/>
<path fill="#092A73" opacity="1.000000" stroke="none" 
	d="
M84.619789,222.412415 
	C86.207161,224.815567 88.630966,227.205582 88.417397,229.330521 
	C88.228424,231.210815 85.309731,233.795105 83.216270,234.226990 
	C81.175041,234.648071 78.159981,233.277222 76.451965,231.725189 
	C73.611824,229.144409 74.954269,225.033905 79.067024,223.126297 
	C80.612244,222.409592 82.550339,222.539871 84.619789,222.412415 
z"/>
<path fill="#A3D9E3" opacity="1.000000" stroke="none" 
	d="
M129.939575,303.848358 
	C109.291916,303.907593 88.644249,303.966797 67.540909,304.107330 
	C68.300484,303.507385 69.501297,302.268524 70.733368,302.236572 
	C78.035355,302.047455 85.344574,302.136566 92.651367,302.135132 
	C104.774025,302.132812 116.896675,302.132721 129.477661,302.441162 
	C129.937180,303.116516 129.938385,303.482452 129.939575,303.848358 
z"/>
<path fill="#0690CC" opacity="1.000000" stroke="none" 
	d="
M458.166046,270.368103 
	C460.442993,269.731506 463.622162,268.455841 464.232483,269.223206 
	C465.621857,270.970154 465.750366,273.719849 466.391235,276.062042 
	C464.144440,276.634430 461.568329,278.181610 459.725250,277.558990 
	C456.685516,276.532043 455.997650,273.641571 458.166046,270.368103 
z"/>
<path fill="#59B1DA" opacity="1.000000" stroke="none" 
	d="
M66.789787,311.959167 
	C89.458054,311.786987 111.798538,311.829865 134.606537,311.954224 
	C134.252029,312.362152 133.430420,312.972412 132.607895,312.973633 
	C111.225624,313.005890 89.843239,312.981903 68.461006,312.922089 
	C67.793976,312.920197 67.128304,312.434418 66.789787,311.959167 
z"/>
<path fill="#59B1DA" opacity="1.000000" stroke="none" 
	d="
M346.960388,273.474243 
	C347.564606,274.046265 348.780182,275.078583 348.792877,276.125488 
	C348.910034,285.765228 348.835297,295.407684 348.747223,305.048706 
	C348.742065,305.611511 348.138763,306.168884 347.483215,306.945557 
	C347.106384,296.088654 347.060120,285.014954 346.960388,273.474243 
z"/>
<path fill="#A3D9E3" opacity="1.000000" stroke="none" 
	d="
M379.041412,281.929932 
	C379.250397,281.202454 379.459351,280.474976 379.668335,279.747498 
	C380.051758,279.772430 380.435181,279.797394 380.818604,279.822327 
	C380.818604,287.901581 380.818604,295.980865 380.528503,304.459778 
	C379.903381,304.819611 379.568359,304.779785 379.233337,304.739960 
	C379.196564,298.499359 379.159760,292.258789 379.301392,285.334717 
	C379.333679,283.744110 379.187561,282.837036 379.041412,281.929932 
z"/>
<path fill="#A3D9E3" opacity="1.000000" stroke="none" 
	d="
M230.229095,308.464233 
	C229.797958,307.531769 228.944855,306.133667 228.942368,304.734009 
	C228.920609,292.488892 229.050827,280.243469 229.139191,267.533661 
	C229.426376,269.435577 229.925888,271.799072 229.957626,274.168854 
	C230.108688,285.444244 230.132446,296.721375 230.229095,308.464233 
z"/>
<path fill="#59B1DA" opacity="1.000000" stroke="none" 
	d="
M291.116699,289.488586 
	C291.593079,294.789246 292.105164,300.551300 292.269867,306.323242 
	C292.283600,306.804626 289.954468,307.352875 288.425537,307.772034 
	C289.099670,306.357117 290.782349,305.097504 290.892517,303.712769 
	C291.255524,299.150421 291.049286,294.542816 291.116699,289.488586 
z"/>
<path fill="#70B4CF" opacity="1.000000" stroke="none" 
	d="
M421.970795,285.495667 
	C415.017883,282.632385 408.250305,283.122528 401.294189,286.990570 
	C406.741638,281.066345 415.921753,280.262421 421.970795,285.495667 
z"/>
<path fill="#70B4CF" opacity="1.000000" stroke="none" 
	d="
M262.097900,285.407959 
	C255.491333,283.299561 248.816391,282.949036 241.939896,286.049744 
	C247.196243,280.917999 254.921646,280.542114 262.097900,285.407959 
z"/>
<path fill="#70B4CF" opacity="1.000000" stroke="none" 
	d="
M220.023743,274.464417 
	C220.470642,277.422821 221.004730,280.830933 221.069763,284.247986 
	C221.205292,291.370361 221.183777,298.499847 220.999603,305.620544 
	C220.965836,306.925995 219.856812,308.203644 218.914474,309.320923 
	C219.002823,307.283630 219.754898,305.424500 219.782623,303.554657 
	C219.924149,294.010681 219.878601,284.463959 220.023743,274.464417 
z"/>
<path fill="#A3D9E3" opacity="1.000000" stroke="none" 
	d="
M304.256775,311.826111 
	C302.965546,310.967346 302.059631,310.090942 300.723114,308.649353 
	C300.212677,304.319611 300.214722,300.551086 300.031403,296.791565 
	C299.821014,292.477203 299.446350,288.170868 299.143066,283.861023 
	C299.143066,283.861023 299.158539,283.961884 299.142822,283.742462 
	C299.127136,283.523041 299.085754,283.183563 299.085754,283.183563 
	C299.720642,284.306152 300.876709,285.415771 300.904999,286.553467 
	C301.076447,293.443573 300.990417,300.340088 300.990417,306.061920 
	C302.580750,308.564575 303.611420,310.186554 304.256775,311.826111 
z"/>
<path fill="#A3D9E3" opacity="1.000000" stroke="none" 
	d="
M389.920288,307.660889 
	C389.824341,308.130707 389.424164,308.065765 389.197693,307.554260 
	C389.028992,295.707794 389.086761,284.372833 389.144531,273.037903 
	C389.144562,273.037903 389.555603,273.090149 389.759521,273.126831 
	C389.981049,284.506073 389.998657,295.848572 389.920288,307.660889 
z"/>
<path fill="#A3D9E3" opacity="1.000000" stroke="none" 
	d="
M470.416870,311.608521 
	C464.975525,309.076263 466.112152,304.280090 466.095062,299.925232 
	C466.075531,294.953491 466.187836,289.981293 466.283203,284.547241 
	C466.549042,290.314758 466.789551,296.543823 466.993317,302.774048 
	C467.086334,305.618774 466.162079,308.930634 470.489532,309.672333 
	C470.674225,309.703979 470.666840,310.856323 470.416870,311.608521 
z"/>
<path fill="#A3D9E3" opacity="1.000000" stroke="none" 
	d="
M353.928467,308.593964 
	C353.439026,308.338409 352.149170,307.716522 352.138855,307.074158 
	C352.014404,299.307770 352.068298,291.538208 352.128021,283.769928 
	C352.130737,283.420013 352.630737,283.073944 353.584076,281.838348 
	C353.428162,283.677979 353.357544,284.511200 353.299805,285.659424 
	C353.449280,293.388977 353.585907,300.803558 353.928467,308.593964 
z"/>
<path fill="#70B4CF" opacity="1.000000" stroke="none" 
	d="
M62.889763,303.512634 
	C57.935993,303.616302 52.975529,303.298584 47.869595,302.590637 
	C52.777107,302.497375 57.830090,302.794312 62.889763,303.512634 
z"/>
<path fill="#59B1DA" opacity="1.000000" stroke="none" 
	d="
M336.892609,303.604919 
	C336.670898,295.187256 336.540649,286.300171 336.647705,277.029297 
	C336.917999,285.475494 336.951019,294.305511 336.892609,303.604919 
z"/>
<path fill="#70B4CF" opacity="1.000000" stroke="none" 
	d="
M75.650299,237.109375 
	C72.565224,238.849335 69.102234,240.559036 65.279289,242.100388 
	C68.370354,240.314392 71.821365,238.696762 75.650299,237.109375 
z"/>
<path fill="#70B4CF" opacity="1.000000" stroke="none" 
	d="
M379.120300,305.132507 
	C379.568359,304.779785 379.903381,304.819611 380.483246,304.925873 
	C381.155762,307.972748 380.687317,310.280548 376.507507,310.083740 
	C377.080658,308.556519 378.043945,307.040802 379.120300,305.132507 
z"/>
<path fill="#70B4CF" opacity="1.000000" stroke="none" 
	d="
M400.666229,287.035400 
	C399.837219,289.026978 398.702454,291.141479 397.351257,293.488281 
	C398.210052,291.533173 399.285248,289.345734 400.666229,287.035400 
z"/>
<path fill="#70B4CF" opacity="1.000000" stroke="none" 
	d="
M130.304581,303.843048 
	C129.938385,303.482452 129.937180,303.116516 129.941864,302.476135 
	C131.688278,301.768738 133.428802,301.335785 135.558319,300.888062 
	C134.188080,301.861420 132.428833,302.849579 130.304581,303.843048 
z"/>
<path fill="#70B4CF" opacity="1.000000" stroke="none" 
	d="
M64.654739,242.014923 
	C63.521904,243.282883 62.073120,244.667953 60.269524,246.011108 
	C61.389400,244.690155 62.864086,243.411102 64.654739,242.014923 
z"/>
<path fill="#70B4CF" opacity="1.000000" stroke="none" 
	d="
M264.115784,288.085449 
	C263.376526,287.620941 262.766266,286.911957 262.205688,285.953156 
	C262.918518,286.415863 263.581635,287.128418 264.115784,288.085449 
z"/>
<path fill="#70B4CF" opacity="1.000000" stroke="none" 
	d="
M378.856659,282.223694 
	C379.187561,282.837036 379.333679,283.744110 379.274597,284.873047 
	C378.897461,285.089966 378.725494,285.085083 378.298950,285.122681 
	C378.253571,284.282623 378.462738,283.400024 378.856659,282.223694 
z"/>
<path fill="#59B1DA" opacity="1.000000" stroke="none" 
	d="
M346.854706,307.874359 
	C346.773071,308.226685 346.422363,308.807220 345.843994,309.256775 
	C345.939453,308.784760 346.262543,308.443665 346.854706,307.874359 
z"/>
<path fill="#59B1DA" opacity="1.000000" stroke="none" 
	d="
M344.783508,272.249207 
	C345.286865,272.111725 345.982208,272.281006 346.841736,272.770752 
	C346.329132,272.912811 345.652283,272.734406 344.783508,272.249207 
z"/>
<path fill="#70B4CF" opacity="1.000000" stroke="none" 
	d="
M59.661736,246.032654 
	C59.741829,246.482468 59.512817,247.050842 58.967075,247.708649 
	C58.884438,247.249130 59.118538,246.700165 59.661736,246.032654 
z"/>
<path fill="#70B4CF" opacity="1.000000" stroke="none" 
	d="
M137.369919,299.623047 
	C137.304153,300.132751 136.931900,300.589508 136.225220,300.985382 
	C136.281693,300.473053 136.672562,300.021545 137.369919,299.623047 
z"/>
<path fill="#70B4CF" opacity="1.000000" stroke="none" 
	d="
M140.708282,295.948486 
	C140.779327,296.401245 140.532166,296.999695 139.969315,297.708374 
	C139.899124,297.243774 140.144592,296.668945 140.708282,295.948486 
z"/>
<path fill="#70B4CF" opacity="1.000000" stroke="none" 
	d="
M57.353287,248.797241 
	C57.503895,249.137939 57.321518,249.508881 56.789669,249.948303 
	C56.633564,249.620346 56.826935,249.223907 57.353287,248.797241 
z"/>
<path fill="#0690CC" opacity="1.000000" stroke="none" 
	d="
M298.802612,283.154236 
	C299.085754,283.183563 299.127136,283.523041 299.150635,283.691620 
	C298.936188,283.871765 298.698212,283.883362 298.103149,283.895447 
	C298.003845,283.638947 298.261658,283.381927 298.802612,283.154236 
z"/>
<path fill="#70B4CF" opacity="1.000000" stroke="none" 
	d="
M58.411816,247.638885 
	C58.592213,248.025772 58.451263,248.372070 58.011452,248.715454 
	C57.838554,248.341125 57.964512,247.969711 58.411816,247.638885 
z"/>
<path fill="#A3D9E3" opacity="1.000000" stroke="none" 
	d="
M231.146362,308.930023 
	C230.993790,309.173492 230.538879,309.248016 230.117828,309.032593 
	C230.382492,308.748810 230.613281,308.754974 231.146362,308.930023 
z"/>
<path fill="#70B4CF" opacity="1.000000" stroke="none" 
	d="
M138.348221,298.655090 
	C138.528778,299.036743 138.412857,299.378937 137.996445,299.676147 
	C137.814560,299.292664 137.933151,298.954132 138.348221,298.655090 
z"/>
<path fill="#A3D9E3" opacity="1.000000" stroke="none" 
	d="
M355.004028,309.077393 
	C354.853790,309.253113 354.386505,309.338745 353.978394,309.148682 
	C354.254059,308.911041 354.470490,308.949158 355.004028,309.077393 
z"/>
<path fill="#70B4CF" opacity="1.000000" stroke="none" 
	d="
M139.431427,297.624817 
	C139.600540,298.025543 139.458588,298.374329 139.015015,298.683319 
	C138.849045,298.286652 138.984695,297.929749 139.431427,297.624817 
z"/>
<path fill="#59B1DA" opacity="1.000000" stroke="none" 
	d="
M135.196762,312.016174 
	C135.168198,311.915924 135.414963,311.835693 135.811890,311.805603 
	C135.779678,311.846161 135.616348,311.906281 135.196762,312.016174 
z"/>
<path fill="#0690CC" opacity="1.000000" stroke="none" 
	d="
M388.937012,273.393799 
	C389.086761,284.372833 389.028992,295.707794 389.000427,307.507538 
	C388.683990,304.581268 388.031128,301.188141 388.054108,297.799561 
	C388.108459,289.781769 388.483856,281.766174 388.937012,273.393799 
z"/>
<path fill="#000000" opacity="1.000000" stroke="none" 
	d="
M318.617615,290.822540 
	C320.431122,286.954926 323.266357,286.657990 326.751953,287.302460 
	C326.751953,294.216309 326.751953,300.944275 326.751953,307.652588 
	C319.132324,308.371826 315.297852,303.148834 317.160919,294.827148 
	C317.442230,293.570526 317.951782,292.365021 318.617615,290.822540 
z"/>
<path fill="#0690CC" opacity="1.000000" stroke="none" 
	d="
M299.111572,284.339294 
	C299.446350,288.170868 299.821014,292.477203 300.031403,296.791565 
	C300.214722,300.551086 300.212677,304.319611 300.429474,308.543701 
	C300.041748,306.677704 299.145996,304.364899 299.065948,302.024170 
	C298.870026,296.295471 299.050873,290.553925 299.111572,284.339294 
z"/>
<path fill="#000000" opacity="1.000000" stroke="none" 
	d="
M415.264221,287.766724 
	C415.874603,294.362274 416.341370,300.674469 416.294312,306.982849 
	C416.287018,307.961884 413.883362,309.749878 412.671204,309.681702 
	C411.189178,309.598358 408.701385,308.096924 408.549927,306.956268 
	C407.848846,301.675537 407.226135,296.251251 407.732788,290.989868 
	C408.072937,287.457733 411.242645,286.016571 415.264221,287.766724 
z"/>
<path fill="#000000" opacity="1.000000" stroke="none" 
	d="
M257.995178,299.757996 
	C256.479980,303.623169 254.966400,307.061829 253.344833,310.745789 
	C246.066849,305.695007 243.483261,295.265198 247.567703,289.241699 
	C248.705276,287.564087 251.887405,287.272888 254.816696,286.062561 
	C256.052917,291.220673 257.024872,295.276123 257.995178,299.757996 
z"/>
</svg>